<svg width="12" height="12" viewBox="0 0 12 12" fill="none" xmlns="http://www.w3.org/2000/svg">
<g clip-path="url(#clip0_899_152)">
<path d="M0 2.15625C0 0.984375 0.960938 0 2.15625 0C3.32812 0 4.3125 0.984375 4.3125 2.15625V3.1875H7.6875V2.15625C7.6875 0.984375 8.64844 0 9.84375 0C11.0156 0 12 0.984375 12 2.15625V2.25C12 3.49219 10.9922 4.5 9.75 4.5H8.8125V7.5H9.75C10.9922 7.5 12 8.50781 12 9.75V9.84375C12 11.0391 11.0156 12 9.84375 12C8.64844 12 7.6875 11.0391 7.6875 9.84375V8.8125H4.3125V9.84375C4.3125 11.0391 3.32812 12 2.15625 12C0.960938 12 0 11.0391 0 9.84375V9.75C0 8.50781 1.00781 7.5 2.25 7.5H3.1875V4.5H2.25C1.00781 4.5 0 3.49219 0 2.25V2.15625ZM3.1875 3.375V3.1875V2.15625C3.1875 1.59375 2.71875 1.125 2.15625 1.125C1.57031 1.125 1.125 1.59375 1.125 2.15625V2.25C1.125 2.88281 1.61719 3.375 2.25 3.375H3.1875ZM4.3125 7.5V7.6875H7.6875V7.5V4.5V4.3125H4.3125V4.5V7.5ZM3.1875 8.625H2.25C1.61719 8.625 1.125 9.14062 1.125 9.75V9.84375C1.125 10.4297 1.57031 10.875 2.15625 10.875C2.71875 10.875 3.1875 10.4297 3.1875 9.84375V8.8125V8.625ZM8.8125 8.8125V9.84375C8.8125 10.4297 9.25781 10.875 9.84375 10.875C10.4062 10.875 10.875 10.4297 10.875 9.84375V9.75C10.875 9.14062 10.3594 8.625 9.75 8.625H8.8125V8.8125ZM8.8125 3.375H9.75C10.3594 3.375 10.875 2.88281 10.875 2.25V2.15625C10.875 1.59375 10.4062 1.125 9.84375 1.125C9.25781 1.125 8.8125 1.59375 8.8125 2.15625V3.1875V3.375Z" fill="#262626"/>
</g>
<defs>
<clipPath id="clip0_899_152">
<rect width="12" height="12" fill="white"/>
</clipPath>
</defs>
</svg>
